<?xml version="1.0" encoding="UTF-8"?>
<svg id="Layer_2" data-name="Layer 2" xmlns="http://www.w3.org/2000/svg" xmlns:xlink="http://www.w3.org/1999/xlink" viewBox="0 0 65.52 65.52">
  <defs>
    <style>
      .cls-1 {
        fill: none;
      }

      .cls-2 {
        fill-rule: evenodd;
      }

      .cls-2, .cls-3 {
        fill: #d00100;
      }

      .cls-4 {
        fill: #cc011d;
      }

      .cls-5 {
        fill: #ededed;
      }

      .cls-6 {
        clip-path: url(#clippath);
      }
    </style>
    <clipPath id="clippath">
      <rect class="cls-1" width="65.52" height="65.52" rx="13.38" ry="13.38"/>
    </clipPath>
  </defs>
  <g id="a">
    <g class="cls-6">
      <g>
        <rect class="cls-5" x="14.19" y="-.11" width="37.61" height="65.89"/>
        <rect class="cls-3" x="-16.66" y="-.11" width="30.85" height="65.89"/>
        <rect class="cls-4" x="51.8" y="-.11" width="30.38" height="65.89"/>
        <path class="cls-2" d="M32.15,51.82c0-.19.02-.45.05-1.04.11-2.22.35-6.6.24-8.03-.02-.32-.37-.27-.51-.26-1.19.07-5.38.66-7.63.95.48-1.23.97-2.4.81-3-.28-1.02-3.94-4.13-8-7.6.91-.31,1.89-.57,2.03-1.21.2-.87-.27-2.57-1.36-6.01,2.6.85,4.04,1.3,4.88,1.07.52-.21.64-1.08.8-2.7,1.44,1.63,3.58,5.13,4.32,4.9,1.12-.43-.51-6.89-1.07-10.33,1.23.84,2.03,1.48,2.67,1.48.89-.04,1.77-2.34,3.38-6.27,1.61,3.94,2.5,6.23,3.38,6.27.64,0,1.44-.63,2.67-1.48-.56,3.45-2.19,9.9-1.07,10.33.74.23,2.88-3.27,4.32-4.9.16,1.62.28,2.5.8,2.7.84.23,2.27-.22,4.88-1.07-1.08,3.44-1.56,5.14-1.36,6.01.13.64,1.11.89,2.03,1.21-4.06,3.47-7.72,6.58-8,7.6-.16.6.33,1.77.81,3-2.25-.29-6.44-.88-7.63-.95-.14,0-.48-.06-.51.26-.11,1.43.13,5.81.24,8.03.03.58.05.84.05,1.04,0,.11-1.23.11-1.23,0h0Z"/>
      </g>
    </g>
  </g>
</svg>